<svg width="52" height="51" viewBox="0 0 52 51" fill="none" xmlns="http://www.w3.org/2000/svg">
<rect width="50.3924" height="50.3924" transform="translate(0.829002 0.255676)" fill="white"/>
<path fill-rule="evenodd" clip-rule="evenodd" d="M49.2058 26.0002C49.2058 24.288 49.0521 22.6417 48.7668 21.0612H26.0253V30.4015H39.0204C38.4607 33.4198 36.7595 35.9771 34.2021 37.6893V43.7478H42.0058C46.5717 39.5442 49.2058 33.3539 49.2058 26.0002Z" fill="#4285F4"/>
<path fill-rule="evenodd" clip-rule="evenodd" d="M26.025 49.5975C32.5445 49.5975 38.0104 47.4353 42.0055 43.7475L34.2019 37.6889C32.0397 39.1377 29.2738 39.9938 26.025 39.9938C19.736 39.9938 14.4128 35.7462 12.514 30.0389H4.44695V36.295C8.42013 44.1865 16.586 49.5975 26.025 49.5975Z" fill="#34A853"/>
<path fill-rule="evenodd" clip-rule="evenodd" d="M12.5143 30.0396C12.0314 28.5908 11.757 27.0433 11.757 25.4518C11.757 23.8603 12.0314 22.3128 12.5143 20.864V14.6079H4.44723C2.81186 17.8676 1.87894 21.5554 1.87894 25.4518C1.87894 29.3481 2.81186 33.0359 4.44723 36.2957L12.5143 30.0396Z" fill="#FBBC05"/>
<path fill-rule="evenodd" clip-rule="evenodd" d="M26.025 10.9088C29.5702 10.9088 32.7531 12.1271 35.2555 14.5198L42.1811 7.5942C37.9994 3.69786 32.5336 1.30517 26.025 1.30517C16.586 1.30517 8.42013 6.71615 4.44695 14.6076L12.514 20.8637C14.4128 15.1564 19.736 10.9088 26.025 10.9088Z" fill="#EA4335"/>
</svg>
